<svg width="120" height="120" viewBox="0 0 120 120" fill="none" xmlns="http://www.w3.org/2000/svg">
<path fill-rule="evenodd" clip-rule="evenodd" d="M117.501 97.4995C118.883 97.4995 120 96.3823 120 95.0003C120 93.6183 118.881 92.5011 117.501 92.5011V2.49923C117.501 1.82384 117.249 1.19755 116.775 0.724478C116.3 0.249923 115.674 0 115 0H42.5012C41.1266 0 40.0005 1.12614 40.0005 2.49923C40.0005 3.8738 41.1266 4.99994 42.5012 4.99994H112.501V92.5026H62.9068L81.737 86.2248C85.1838 85.0733 87.5015 81.8615 87.5015 78.2287C87.5015 75.4855 86.2237 72.9922 83.9997 71.3886C81.7727 69.7864 79.0088 69.3595 76.4039 70.2327L47.0949 80.0005H40.7993C43.3952 77.0773 45.0004 73.1157 45.0004 68.7495C45.0004 59.7895 38.2719 52.4986 30.0007 52.4986C21.7296 52.4986 15.0011 59.7895 15.0011 68.7495C15.0011 73.1157 16.6063 77.0773 19.2021 80.0005H12.5004C10.7227 80.0005 9.0328 80.3784 7.50056 81.0508V5.00143H22.5017C23.8762 5.00143 25.0009 3.87529 25.0009 2.50071C25.0009 1.12763 23.9 0.0252898 22.5255 0.00148763H22.5002H4.99988C4.35128 0.00148763 3.6997 0.273725 3.22515 0.725965C2.7744 1.19903 2.50068 1.82533 2.50068 2.50071V85.0332C0.937198 87.1188 0 89.6999 0 92.5011V117.499C0 118.881 1.11869 120 2.50068 120C3.88268 120 4.99988 118.881 4.99988 117.499V97.4995V95.0003V92.5011C4.99988 90.286 5.9698 88.3 7.50056 86.9254C8.829 85.7323 10.5784 85.0004 12.5004 85.0004H26.9972L25.4814 92.5011L24.9756 95.0003L24.4698 97.4995L22.5478 107.004C22.3871 107.803 22.6266 108.632 23.1875 109.222L28.1873 114.485C28.6589 114.984 29.3135 115.265 29.9993 115.265C30.6865 115.265 31.3396 114.984 31.8112 114.485L36.811 109.222C37.3734 108.63 37.6114 107.803 37.4507 107.004L35.5302 97.4995L35.0244 95.0003L34.5201 92.5011L33.0042 85.0004H47.5011C47.7703 85.0004 48.0351 84.9558 48.2925 84.871L77.9853 74.9753C79.043 74.6242 80.1706 74.7953 81.0736 75.4468C81.9795 76.0984 82.5002 77.1145 82.5002 78.2302C82.5002 79.7059 81.5585 81.0151 80.1542 81.4837L47.0979 92.5026L46.7096 92.632C45.6891 92.9697 45.0004 93.9248 45.0004 95.0018V97.501V117.499C45.0004 118.881 46.1191 120 47.5011 120C48.883 120 50.0002 118.881 50.0002 117.499V97.4995H115H117.501ZM32.5014 0.00148763C31.1269 0.00148763 30.0007 1.12763 30.0007 2.50071C30.0007 3.87529 31.1269 5.00143 32.5014 5.00143C33.876 5.00143 35.0006 3.87529 35.0006 2.50071C35.0006 1.12763 33.876 0.00148763 32.5014 0.00148763ZM9.99975 95.0003C9.99975 93.6183 11.1184 92.5011 12.5004 92.5011C13.8824 92.5011 15.0011 93.6183 14.9996 95.0018V97.501V117.499C14.9996 118.881 13.8824 120 12.5004 120C11.1184 120 9.99975 118.881 9.99975 117.499V97.4995V95.0003ZM25.0009 30.0011C25.0009 31.3831 26.1196 32.5003 27.5015 32.5003H57.5008C58.8828 32.5003 60 31.3831 60 30.0011C60 28.6191 58.8828 27.5004 57.5008 27.5004H27.5001C26.1196 27.5004 25.0009 28.6191 25.0009 30.0011ZM45.0004 17.5005C46.3749 17.5005 47.5011 18.6267 47.5011 20.0012C47.5011 21.3758 46.3749 22.5005 45.0004 22.5005C43.6258 22.5005 42.5012 21.3758 42.5012 20.0012C42.5012 18.6267 43.6258 17.5005 45.0004 17.5005ZM57.5008 22.5005C58.8754 22.5005 60 21.3758 60 20.0012C60 18.6267 58.8754 17.5005 57.5008 17.5005H55.0001C53.6256 17.5005 52.5009 18.6267 52.5009 20.0012C52.5009 21.3758 53.6256 22.5005 55.0001 22.5005H57.5008ZM34.9991 22.5005H27.5001C26.1255 22.5005 25.0009 21.3758 24.9994 20.0012C24.9994 18.6267 26.1255 17.5005 27.5001 17.5005H34.9991C36.3737 17.5005 37.4998 18.6267 37.4998 20.0012C37.4998 21.3758 36.3737 22.5005 34.9991 22.5005ZM50.0002 40.001C50.0002 38.6264 48.8756 37.5003 47.5011 37.5003H27.5001C26.1255 37.5003 24.9994 38.6264 24.9994 40.001C24.9994 41.3756 26.1255 42.5002 27.5001 42.5002H47.4996C48.8756 42.5002 50.0002 41.3756 50.0002 40.001ZM55.0001 40.001C55.0001 38.6264 56.1262 37.5003 57.5008 37.5003C58.8754 37.5003 60 38.6264 60 40.001C60 41.3756 58.8754 42.5002 57.5008 42.5002C56.1262 42.5002 55.0001 41.3756 55.0001 40.001ZM45.0004 52.5001H57.5008C58.8828 52.5001 60 51.3829 60 50.0009C60 48.6189 58.8828 47.5016 57.5008 47.5016H45.0004C43.6184 47.5016 42.5012 48.6189 42.5012 50.0009C42.5012 51.3829 43.6184 52.5001 45.0004 52.5001ZM30.0007 80.0005C35.5153 80.0005 40.0005 74.9544 40.0005 68.7495C40.0005 62.5446 35.5153 57.4985 30.0007 57.4985C24.4862 57.4985 20.001 62.5446 20.001 68.7495C20.001 74.9544 24.4862 80.0005 30.0007 80.0005ZM30.0007 95.3826L30.4292 97.501L32.2932 106.721L30.0007 109.134L27.7083 106.721L29.5723 97.501L30.0007 95.3826ZM67.5006 50.0009H77.5003V42.5002C77.5003 41.1197 78.6175 40.001 79.9995 40.001H92.4999C93.8819 40.001 94.9991 41.1197 94.9991 42.5002V45.0009H104.999C106.381 45.0009 107.5 46.1196 107.5 47.5016V62.5C107.5 63.882 106.381 65.0007 104.999 65.0007H92.4999H79.9995H67.5006C66.1186 65.0007 64.9999 63.882 64.9999 62.5V52.5001C64.9999 51.1181 66.1186 50.0009 67.5006 50.0009ZM94.9991 50.0009H102.5V60.0007H94.9991V50.0009ZM82.5002 60.0007H89.9993V47.5016V45.0009H82.5002V52.5001V60.0007ZM69.9998 55.0008H77.5003V60.0007H69.9998V55.0008ZM90.9662 26.2508H93.4654C94.8474 26.2508 95.9661 25.1321 95.9661 23.7501C95.9661 22.3681 94.8474 21.2494 93.4654 21.2494H90.9662C89.5842 21.2494 88.4655 22.3681 88.4655 23.7501C88.467 25.1321 89.5842 26.2508 90.9662 26.2508ZM83.4656 16.2509C83.4656 14.8689 84.5843 13.7502 85.9663 13.7502C87.3483 13.7502 88.467 14.8689 88.4655 16.2509V18.7501C88.4655 20.1322 87.3483 21.2494 85.9663 21.2494C84.5843 21.2494 83.4656 20.1322 83.4656 18.7501V16.2509ZM80.9665 21.2494H78.4658C77.0838 21.2494 75.9666 22.3681 75.9666 23.7501C75.9666 25.1321 77.0838 26.2508 78.4658 26.2508H80.9665C82.3484 26.2508 83.4656 25.1321 83.4656 23.7501C83.4656 22.3681 82.3484 21.2494 80.9665 21.2494ZM85.9663 33.75C84.5843 33.75 83.4656 32.6327 83.4656 31.2507V28.75C83.4656 27.368 84.5843 26.2508 85.9663 26.2508C87.3483 26.2508 88.4655 27.368 88.4655 28.75V31.2507C88.4655 32.6327 87.3483 33.75 85.9663 33.75Z" fill="black"/>
</svg>
