<svg width="155" height="151" viewBox="0 0 155 151" fill="none" xmlns="http://www.w3.org/2000/svg">
<g id="money">
<path id="Shape" fill-rule="evenodd" clip-rule="evenodd" d="M49 121.5C48.9999 105.208 62.4312 92.0002 78.9997 92C95.5606 92.0182 108.981 105.215 109 121.5C109 137.792 95.5686 151 79.0001 151C62.4316 151 49.0001 137.793 49 121.5ZM88.5998 125.433C88.5998 121.963 85.3701 119.14 81.3997 119.14H76.5997C75.1852 119.14 74.1997 118.311 74.1997 117.566V113.634C74.1997 112.889 75.1852 112.06 76.5997 112.06H81.3997C82.8142 112.06 83.7998 112.889 83.7998 113.634C83.7998 114.937 84.8743 115.994 86.1998 115.994C87.5253 115.994 88.5998 114.937 88.5998 113.634C88.5998 110.163 85.3701 107.34 81.3997 107.34V103.8C81.3997 102.497 80.3252 101.44 78.9997 101.44C77.6742 101.44 76.5997 102.497 76.5997 103.8V107.34C72.6293 107.34 69.3996 110.163 69.3996 113.634V117.566C69.3996 121.037 72.6293 123.86 76.5997 123.86H81.3997C82.8142 123.86 83.7998 124.689 83.7998 125.433V129.366C83.7998 130.111 82.8142 130.94 81.3997 130.94H76.5997C75.1852 130.94 74.1997 130.111 74.1997 129.366C74.1997 128.063 73.1251 127.006 71.7996 127.006C70.4741 127.006 69.3996 128.063 69.3996 129.366C69.3996 132.837 72.6293 135.66 76.5997 135.66V139.2C76.5997 140.503 77.6742 141.56 78.9997 141.56C80.3252 141.56 81.3997 140.503 81.3997 139.2V135.66C85.3701 135.66 88.5998 132.837 88.5998 129.366V125.433Z" fill="black"/>
<path id="Shape_2" fill-rule="evenodd" clip-rule="evenodd" d="M50.4136 100C56.9886 91.8884 66.9576 87.1642 77.5 87.1642C88.0424 87.1642 98.0114 91.8884 104.586 100C112.525 92.5617 117.013 82.2411 117 71.4525C117 58.3584 103.167 39.0792 91.3386 24.9882L98.7906 10.3794C99.174 9.6275 99.1214 8.73154 98.6527 8.02812C98.4656 7.74853 93.9969 1.16436 86.7543 0.158739C82.8068 -0.302276 78.8355 0.805737 75.7209 3.23714C72.9723 0.861683 69.3473 -0.287857 65.7068 0.0615133C58.6466 0.896859 54.1252 7.76342 53.9358 8.05516C53.4602 8.79051 53.4355 9.72416 53.8716 10.4829L62.8058 26.0118C51.1763 40.0014 38.0001 58.6731 38.0001 71.4525C37.987 82.2411 42.4748 92.5617 50.4136 100ZM79.8939 58.8882C83.8585 58.8925 87.0714 62.055 87.0757 65.9574V70.6702C87.0714 74.5726 83.8585 77.7351 79.8939 77.7393V82.4521C79.8939 83.7535 78.8221 84.8085 77.5 84.8085C76.1779 84.8085 75.1061 83.7535 75.1061 82.4521V77.7393C71.1415 77.7351 67.9286 74.5726 67.9243 70.6702C67.9243 69.3688 68.9961 68.3138 70.3182 68.3138C71.6403 68.3138 72.7121 69.3688 72.7121 70.6702C72.7137 71.971 73.7846 73.025 75.1061 73.0265H79.8939C81.2154 73.025 82.2863 71.971 82.2879 70.6702V65.9574C82.2864 64.6566 81.2154 63.6025 79.8939 63.6011H75.1061C71.1415 63.5968 67.9286 60.4343 67.9243 56.5318V51.8191C67.9286 47.9167 71.1415 44.7542 75.1061 44.7499V40.0372C75.1061 38.7358 76.1779 37.6808 77.5 37.6808C78.8221 37.6808 79.8939 38.7358 79.8939 40.0372V44.75C83.8585 44.7542 87.0714 47.9167 87.0757 51.8191C87.0757 53.1205 86.0039 54.1755 84.6818 54.1755C83.3597 54.1755 82.2879 53.1205 82.2879 51.8191C82.2864 50.5183 81.2154 49.4642 79.8939 49.4627H75.1061C73.7846 49.4642 72.7136 50.5183 72.7121 51.8191V56.5318C72.7136 57.8326 73.7846 58.8868 75.1061 58.8882H79.8939ZM66.2971 4.73859C62.8757 5.13382 60.1194 7.91191 58.8056 9.4957L66.8874 23.5425H86.7192L93.8379 9.58545C92.524 8.05688 89.7058 5.31676 86.0588 4.82143C83.2078 4.43426 80.2563 5.51294 77.2837 8.02525C76.8496 8.39187 76.2965 8.59349 75.7244 8.59363H75.569C74.9516 8.59368 74.3582 8.35891 73.9126 7.93838C71.355 5.52617 68.7892 4.44691 66.2971 4.73859Z" fill="black"/>
<path id="Shape_3" fill-rule="evenodd" clip-rule="evenodd" d="M121.36 68.1294C122.267 68.0471 123.186 68 124.116 68C136.282 67.9996 147.233 75.2798 151.807 86.4081C156.38 97.5365 153.664 110.291 144.938 118.659C136.211 127.027 123.218 129.336 112.083 124.5C112.13 123.765 112.163 123.026 112.163 122.28C112.163 121.374 112.117 120.478 112.046 119.59C112.042 119.531 112.038 119.473 112.035 119.414C112.03 119.343 112.026 119.271 112.02 119.2L112.016 119.197C111.556 114.117 109.943 109.204 107.298 104.823C110.261 102.129 112.844 99.0522 114.975 95.677C116.163 98.2898 118.826 99.9403 121.726 99.86H126.507C127.918 99.86 128.898 100.686 128.898 101.429V105.371C128.898 106.114 127.918 106.94 126.507 106.94H121.726C120.315 106.94 119.335 106.114 119.335 105.371C119.335 104.067 118.265 103.011 116.945 103.011C115.624 103.011 114.554 104.067 114.554 105.371C114.554 108.84 117.769 111.66 121.726 111.66V115.2C121.726 116.503 122.796 117.56 124.116 117.56C125.437 117.56 126.507 116.503 126.507 115.2V111.66C130.464 111.66 133.679 108.84 133.679 105.371V101.429C133.679 97.9602 130.464 95.14 126.507 95.14H121.726C120.315 95.14 119.335 94.314 119.335 93.5706V89.6294C119.335 88.886 120.315 88.06 121.726 88.06H126.507C127.918 88.06 128.898 88.8861 128.898 89.6294C128.898 90.9328 129.968 91.9894 131.288 91.9894C132.609 91.9894 133.679 90.9328 133.679 89.6294C133.679 86.1602 130.464 83.34 126.507 83.34V79.8C126.507 78.4966 125.437 77.44 124.116 77.44C122.796 77.44 121.726 78.4966 121.726 79.8V83.34C121.245 83.3411 120.765 83.3846 120.291 83.4698C120.285 83.4954 120.277 83.5205 120.268 83.5455C120.26 83.5698 120.253 83.5941 120.246 83.6189C121.229 79.9323 121.727 76.1359 121.726 72.3236C121.714 70.9183 121.592 69.516 121.36 68.1294ZM42.9165 124.5C39.1251 126.15 35.0264 127.002 30.8826 127C14.3789 127 1 113.792 1 97.5C1 81.2076 14.3789 68 30.8826 68C31.8133 68 32.7321 68.0471 33.6389 68.1294C33.4073 69.516 33.2851 70.9183 33.2732 72.3236C33.2739 76.2665 33.8078 80.1916 34.8607 83.995C34.8394 83.9185 34.8164 83.8428 34.7935 83.767C34.7636 83.6685 34.7337 83.5699 34.7076 83.4698C34.2343 83.3846 33.7543 83.3411 33.2732 83.34V79.8C33.2732 78.4966 32.2029 77.44 30.8826 77.44C29.5623 77.44 28.492 78.4966 28.492 79.8V83.34C24.5356 83.34 21.3202 86.1602 21.3202 89.6294V93.5706C21.3202 97.0398 24.5356 99.86 28.492 99.86H33.2732C34.6837 99.86 35.6638 100.686 35.6638 101.429V105.371C35.6638 106.114 34.6837 106.94 33.2732 106.94H28.492C27.0816 106.94 26.1014 106.114 26.1014 105.371C26.1014 104.067 25.0311 103.011 23.7108 103.011C22.3905 103.011 21.3202 104.067 21.3202 105.371C21.3202 108.84 24.5356 111.66 28.492 111.66V115.2C28.492 116.503 29.5623 117.56 30.8826 117.56C32.2029 117.56 33.2732 116.503 33.2732 115.2V111.66C37.2297 111.66 40.4451 108.84 40.4451 105.371V101.429C40.4451 97.9602 37.2297 95.14 33.2732 95.14H28.492C27.0816 95.14 26.1014 94.314 26.1014 93.5706V89.6294C26.1014 88.886 27.0816 88.06 28.492 88.06H33.2732C34.6837 88.06 35.6638 88.886 35.6638 89.6294C35.6633 90.8856 36.6638 91.92 37.9349 91.9776C40.3688 96.8125 43.6782 101.167 47.6998 104.826C45.0547 109.207 43.4426 114.119 42.9831 119.198L42.9791 119.2L42.9791 119.2C42.9672 119.424 42.9552 119.649 42.9313 119.861L42.9318 119.863C42.8749 120.662 42.8357 121.467 42.8357 122.28C42.8357 123.026 42.8686 123.765 42.9165 124.5Z" fill="black"/>
</g>
</svg>
