<svg width="180" height="132" viewBox="0 0 180 132" fill="none" xmlns="http://www.w3.org/2000/svg">
<g id="unlimited">
<g id="PL_x5F_Reset_1_">
<path id="Shape" fill-rule="evenodd" clip-rule="evenodd" d="M130.995 64.8281L146 51C147.812 50.547 149.453 52.1882 149 54L128.829 73.25L107 51L106.8 49.6C106.544 47.8061 108.719 46.7187 110 48L126.594 64.7938C126.508 36.6093 106.96 12.1868 81 5C81 5 80 4.5 80 3C80 1.5 81 1 81 1C81 1 82.3839 1.30737 82.6186 1.37214C110.48 9.05954 130.938 34.5492 130.995 64.8281Z" fill="black"/>
<circle id="Oval" cx="73" cy="2" r="2" fill="black"/>
<circle id="Oval_2" cx="151" cy="49" r="2" fill="black"/>
<path id="Shape Copy" fill-rule="evenodd" clip-rule="evenodd" d="M66.0147 4.4C32.0447 4.4 4.40098 32.0375 4.40098 66C4.40098 99.9625 32.0447 127.6 66.0147 127.6C93.0395 127.6 116.042 110.069 124.293 85.8L128.557 87.0031C119.755 113.163 95.1025 132 66.0147 132C29.5691 132 0 102.438 0 66C0 29.5625 29.5691 0 66.0147 0C67.6369 0 67.6385 4.4 66.0147 4.4Z" fill="black"/>
</g>
<path id="Shape_2" fill-rule="evenodd" clip-rule="evenodd" d="M160.603 49.5577C165.211 53.9587 167.745 59.8114 167.739 66.038C167.732 72.2448 165.2 78.0693 160.609 82.4369C155.968 86.8438 149.809 89.271 143.264 89.271C136.72 89.271 130.561 86.8438 125.923 82.4396L82.6361 41.217C75.6862 34.6286 66.4749 31 56.6988 31C51.581 31 50 33 50 37C50 41 52 43 56.6991 42.729C63.2436 42.729 69.4032 45.1562 74.041 49.5604L117.327 90.7827C124.277 97.3714 133.488 101 143.264 101C153.084 101 162.297 97.3694 169.2 90.7844C176.158 84.1973 179.993 75.3955 179.999 66.0017C180.004 56.6331 176.186 47.833 169.247 41.223C162.337 34.6306 155.968 45.1562 160.603 49.5577Z" fill="black"/>
<path id="Shape_3" fill-rule="evenodd" clip-rule="evenodd" d="M20.0002 65.9976C20.0004 71.9953 23.8122 84.1616 30.756 90.777C37.6662 97.3694 46.8796 101 56.6988 101C66.5177 101 75.731 97.3694 82.6375 90.7817L94 80L94.1612 79.3552C95.3702 74.5192 90.6847 70.2964 86 72L74.0434 82.4369C69.4028 86.8438 63.2432 89.2709 56.6988 89.2709C50.1551 89.2709 43.9958 86.8438 39.361 82.4422C34.7528 78.0413 32.2184 72.1883 32.2252 65.9616C32.2286 62.8181 29.0962 59.9244 26 60C22.9829 60.0736 20.0001 63.0376 20.0002 65.9976Z" fill="black"/>
<path id="Shape_4" fill-rule="evenodd" clip-rule="evenodd" d="M37.675 34.3546C31.7662 35.3965 25.1033 43.6793 24.1756 49.9355C23.2478 56.1916 32.632 57.5832 35.2392 55.0926C37.8463 52.6021 36.0087 48.6428 43.4793 46.8618C48.7957 45.5943 45.5535 32.9654 37.675 34.3546Z" fill="black"/>
</g>
</svg>
